<svg id="brand-logo" height="256" viewBox="0 0 256 256"><linearGradient id="k" x1="60.931" x2="39.939" y1="46.728" y2="58.849" gradientUnits="userSpaceOnUse"><stop offset="0" stop-color="#f7ae1a"/><stop offset="1" stop-color="#e45e25"/></linearGradient><linearGradient id="g-6" x1="83.979" x2="83.979" y1="58.502" y2="85.978" gradientUnits="userSpaceOnUse"><stop offset="0" stop-color="#e45e25"/><stop offset="1" stop-color="#d2343e"/></linearGradient><linearGradient id="e" x1="61.957" x2="40.076" y1="107.083" y2="144.978" gradientUnits="userSpaceOnUse"><stop offset="0" stop-color="#d2343e"/><stop offset="1" stop-color="#bb2033"/></linearGradient><linearGradient id="d" x1="60.677" x2="83.979" y1="157.023" y2="118.545" gradientUnits="userSpaceOnUse"><stop offset="0" stop-color="#ab2333"/><stop offset="1" stop-color="#bb2033"/></linearGradient><linearGradient id="f" x1="39.939" x2="39.939" y1="194.815" y2="143.968" gradientUnits="userSpaceOnUse"><stop offset="0" stop-color="#7b2f44"/><stop offset="1" stop-color="#ab2333"/></linearGradient><linearGradient id="g" x1="39.332" x2="105.66" y1="195.165" y2="156.872" gradientUnits="userSpaceOnUse"><stop offset="0" stop-color="#7b2f44" stop-opacity=".5"/><stop offset="1" stop-color="#21376d" stop-opacity=".5"/></linearGradient><linearGradient id="a" x1="39.332" x2="83.979" y1="195.165" y2="169.392" gradientUnits="userSpaceOnUse"><stop offset="0" stop-color="#7b2f44"/><stop offset="1" stop-color="#4c3d90"/></linearGradient><linearGradient id="h" x1="128.015" x2="108.928" y1="194.815" y2="205.833" gradientUnits="userSpaceOnUse"><stop offset="0" stop-color="#005082"/><stop offset="1" stop-color="#21376d"/></linearGradient><linearGradient id="i" x1="83.979" x2="105.094" y1="169.392" y2="157.195" gradientUnits="userSpaceOnUse"><stop offset="0" stop-color="#21376d"/><stop offset="1" stop-color="#005082"/></linearGradient><linearGradient id="c" x1="152.583" x2="128.015" y1="180.631" y2="194.815" gradientUnits="userSpaceOnUse"><stop offset="0" stop-color="#023e49"/><stop offset="1" stop-color="#005082"/></linearGradient><linearGradient id="b" x1="127.795" x2="148.855" y1="144.092" y2="131.936" gradientUnits="userSpaceOnUse"><stop offset="0" stop-color="#023e49"/><stop offset="1" stop-color="#007e96"/></linearGradient><linearGradient id="j" x1="192.321" x2="172.054" y1="157.682" y2="169.392" gradientUnits="userSpaceOnUse"><stop offset="0" stop-color="#0a9197"/><stop offset="1" stop-color="#007e96"/></linearGradient><path id="shadow" fill="#2e3436" fill-opacity=".2" d="m216.06 171.72-132.11 76.276-44.037-25.424 132.11-76.277z"/><g id="glogo"><path id="gt12" fill="url(#j)" d="m172.05 169.39v-50.85l44.036 25.425z"/><path id="gt11" fill="url(#b)" d="m172.05 169.39-44.036-25.425 44.036-25.425z"/><path id="gt10" fill="url(#c)" d="m128.01 194.82v-50.85l44.036 25.425z"/><path id="gt9" fill="url(#i)" d="m83.979 169.4 44.036-25.425v50.85z"/><path id="gt8" fill="url(#h)" d="m83.979 220.24 44.036-25.425-44.036-25.425z"/><path id="gt7" fill="url(#a)" d="m39.939 194.82 44.036-25.425v50.85z"/><path id="gt6" fill="url(#g)" d="m39.939 194.82 44.036-25.425v50.85z"/><path id="gt5" fill="url(#f)" d="m39.939 143.97 44.036 25.425-44.036 25.425z"/><path id="gt4" fill="url(#d)" d="m39.939 143.97 44.036-25.425v50.85z"/><path id="gt3" fill="url(#e)" d="m39.939 93.118 44.036 25.425-44.036 25.425z"/><path id="gt2" fill="url(#g-6)" d="m39.939 58.849 44.036-25.425v50.85z"/><path id="gt1" fill="url(#k)" d="m39.939 58.849v-50.85l44.036 25.425z"/></g></svg>